<svg version="1.1" viewBox="0.0 0.0 146.80839895013122 146.80839895013122" fill="none" stroke="none" stroke-linecap="square" stroke-miterlimit="10" xmlns:xlink="http://www.w3.org/1999/xlink" xmlns="http://www.w3.org/2000/svg"><clipPath id="p.0"><path d="m0 0l146.8084 0l0 146.8084l-146.8084 0l0 -146.8084z" clip-rule="nonzero"/></clipPath><g clip-path="url(#p.0)"><path fill="#000000" fill-opacity="0.0" d="m0 0l146.8084 0l0 146.8084l-146.8084 0z" fill-rule="evenodd"/><defs><linearGradient id="p.1" gradientUnits="userSpaceOnUse" gradientTransform="matrix(11.975061336102241 0.0 0.0 11.975061336102241 0.0 0.0)" spreadMethod="pad" x1="0.14224662619099843" y1="0.1422032694760135" x2="0.1422032694760135" y2="12.117264605499766"><stop offset="0.0" stop-color="#274e13"/><stop offset="1.0" stop-color="#00ff00"/></linearGradient></defs><path fill="url(#p.1)" d="m1.703412 73.4042l0 0c0 -39.59925 32.101536 -71.70078 71.70078 -71.70078l0 0c19.016235 0 37.25361 7.5541687 50.70011 21.000675c13.446503 13.4465065 21.000671 31.683884 21.000671 50.70011l0 0c0 39.59925 -32.101532 71.70078 -71.70078 71.70078l0 0c-39.59925 0 -71.70078 -32.101532 -71.70078 -71.70078z" fill-rule="evenodd"/><path stroke="#000000" stroke-width="1.0" stroke-linejoin="round" stroke-linecap="butt" d="m1.703412 73.4042l0 0c0 -39.59925 32.101536 -71.70078 71.70078 -71.70078l0 0c19.016235 0 37.25361 7.5541687 50.70011 21.000675c13.446503 13.4465065 21.000671 31.683884 21.000671 50.70011l0 0c0 39.59925 -32.101532 71.70078 -71.70078 71.70078l0 0c-39.59925 0 -71.70078 -32.101532 -71.70078 -71.70078z" fill-rule="evenodd"/><defs><linearGradient id="p.2" gradientUnits="userSpaceOnUse" gradientTransform="matrix(5.082375505102158 0.0 0.0 5.082375505102158 0.0 0.0)" spreadMethod="pad" x1="4.440750990504644" y1="1.5729618630564337" x2="4.4407323305732564" y2="6.6553373681243375"><stop offset="0.0" stop-color="#ffffff"/><stop offset="1.0" stop-color="#ffffff" stop-opacity="0.0"/></linearGradient></defs><path fill="url(#p.2)" d="m22.569563 33.821476l0 0c0.017150879 -14.266932 22.773634 -25.827677 50.83802 -25.826725c28.064392 9.5129013E-4 50.81785 11.563238 50.831253 25.830173z" fill-rule="evenodd"/></g></svg>